<svg width="7" height="11" viewBox="0 0 7 11" fill="none" xmlns="http://www.w3.org/2000/svg">
<path fill-rule="evenodd" clip-rule="evenodd" d="M1.20999 10.77C1.07216 10.6267 0.996848 10.4346 1.0006 10.2358C1.00435 10.0371 1.08686 9.84794 1.22999 9.70998L5.16799 5.99998L1.22999 2.28998C1.15565 2.22254 1.0956 2.14087 1.0534 2.0498C1.01119 1.95873 0.987704 1.86011 0.984314 1.7598C0.980925 1.65948 0.997705 1.55951 1.03366 1.46579C1.06962 1.37208 1.12402 1.28654 1.19365 1.21424C1.26327 1.14194 1.3467 1.08435 1.43899 1.04488C1.53127 1.00541 1.63055 0.984874 1.73092 0.984477C1.83129 0.984079 1.93072 1.00383 2.02332 1.04257C2.11592 1.08131 2.1998 1.13823 2.26999 1.20998L6.76999 5.45998C6.84258 5.52994 6.90032 5.61382 6.93975 5.70661C6.97919 5.79939 6.99951 5.89917 6.99951 5.99998C6.99951 6.1008 6.97919 6.20058 6.93975 6.29336C6.90032 6.38614 6.84258 6.47002 6.76999 6.53998L2.26999 10.79C2.12674 10.9278 1.93462 11.0031 1.73585 10.9994C1.53709 10.9956 1.34795 10.9131 1.20999 10.77Z" fill="#040404"/>
</svg>
