<svg width="1320" height="181" viewBox="0 0 1320 181" fill="none" xmlns="http://www.w3.org/2000/svg">
<g clip-path="url(#clip0_31_986)">
<path d="M0 177.375V3.38565H73.6494C75.3453 3.38565 77.6065 3.4662 80.4329 3.6273C83.3401 3.70785 85.9243 3.9495 88.1855 4.35226C98.603 5.96327 107.123 9.38667 113.745 14.6225C120.447 19.8583 125.374 26.4634 128.523 34.4379C131.673 42.3319 133.247 51.1522 133.247 60.8989C133.247 75.4785 129.613 87.9639 122.345 98.355C115.077 108.665 103.691 115.029 88.1855 117.445L73.6494 118.412H32.9484V177.375H0ZM98.3607 177.375L63.9587 106.571L97.8762 100.047L135.67 177.375H98.3607ZM32.9484 87.7223H72.1958C73.8917 87.7223 75.7491 87.6417 77.768 87.4806C79.7869 87.3195 81.6443 86.9973 83.3401 86.514C87.7817 85.3057 91.2138 83.292 93.6365 80.4727C96.0592 77.5729 97.7147 74.3911 98.603 70.9274C99.5721 67.3832 100.057 64.0403 100.057 60.8989C100.057 57.7574 99.5721 54.4548 98.603 50.9911C97.7147 47.4469 96.0592 44.2651 93.6365 41.4459C91.2138 38.546 87.7817 36.492 83.3401 35.2837C81.6443 34.8004 79.7869 34.4782 77.768 34.3171C75.7491 34.156 73.8917 34.0755 72.1958 34.0755H32.9484V87.7223Z" fill="#040404"/>
<path d="M162.301 177.375V3.38565H276.166V34.0755H195.249V71.2899H261.63V101.98H195.249V146.685H276.166V177.375H162.301Z" fill="#040404"/>
<path d="M293.087 177.375L346.386 3.38565H395.567L448.866 177.375H414.948L367.464 23.9261H373.762L327.005 177.375H293.087ZM325.067 141.127V110.438H417.128V141.127H325.067Z" fill="#040404"/>
<path d="M473 177.375V3.38565H505.948V146.685H581.051V177.375H473Z" fill="#040404"/>
<path d="M667.544 181C654.623 181 642.954 178.745 632.537 174.234C622.2 169.642 613.68 163.118 606.977 154.66C600.355 146.122 596.156 135.972 594.379 124.212L628.782 119.137C631.204 129.125 636.211 136.818 643.802 142.215C651.393 147.612 660.034 150.31 669.725 150.31C675.135 150.31 680.385 149.464 685.472 147.773C690.56 146.081 694.719 143.584 697.949 140.282C701.26 136.979 702.916 132.911 702.916 128.078C702.916 126.306 702.633 124.614 702.068 123.003C701.583 121.312 700.735 119.741 699.524 118.291C698.312 116.841 696.576 115.472 694.315 114.183C692.135 112.894 689.349 111.726 685.957 110.679L640.653 97.3883C637.261 96.4217 633.304 95.0524 628.782 93.2803C624.34 91.5081 620.02 88.9708 615.82 85.6682C611.621 82.3656 608.108 78.0159 605.282 72.619C602.536 67.1415 601.163 60.2545 601.163 51.9577C601.163 40.2779 604.111 30.5715 610.006 22.8386C615.901 15.1058 623.775 9.3464 633.627 5.56052C643.479 1.77463 654.381 -0.078037 666.333 0.00251744C678.366 0.163617 689.106 2.21766 698.555 6.16465C708.003 10.1116 715.917 15.871 722.297 23.4428C728.677 30.934 733.28 40.1168 736.106 50.9911L700.493 57.0324C699.201 51.3939 696.818 46.6414 693.346 42.7749C689.873 38.9085 685.714 35.9684 680.869 33.9546C676.105 31.9409 671.098 30.8534 665.849 30.6923C660.68 30.5312 655.794 31.2562 651.191 32.8672C646.669 34.3977 642.954 36.6531 640.047 39.6335C637.221 42.6138 635.807 46.1581 635.807 50.2662C635.807 54.0521 636.978 57.1533 639.32 59.5698C641.662 61.9057 644.61 63.7987 648.163 65.2486C651.716 66.6985 655.35 67.9068 659.065 68.8734L689.348 77.0896C693.871 78.2978 698.878 79.9088 704.369 81.9226C709.861 83.8558 715.11 86.5945 720.116 90.1388C725.204 93.6025 729.363 98.1938 732.593 103.913C735.904 109.632 737.56 116.882 737.56 125.662C737.56 135.006 735.581 143.181 731.624 150.189C727.748 157.117 722.499 162.876 715.877 167.467C709.255 171.978 701.745 175.361 693.346 177.617C685.028 179.872 676.428 181 667.544 181Z" fill="#040404"/>
<path d="M804.643 177.375V34.0755H749.649V3.38565H892.587V34.0755H837.592V177.375H804.643Z" fill="#040404"/>
<path d="M895.208 177.375L948.507 3.38565H997.687L1050.99 177.375H1017.07L969.584 23.9261H975.883L929.125 177.375H895.208ZM927.187 141.127V110.438H1019.25V141.127H927.187Z" fill="#040404"/>
<path d="M1098.72 177.375V34.0755H1043.73V3.38565H1186.67V34.0755H1131.67V177.375H1098.72Z" fill="#040404"/>
<path d="M1206.13 177.375V3.38565H1320V34.0755H1239.08V71.2899H1305.46V101.98H1239.08V146.685H1320V177.375H1206.13Z" fill="#040404"/>
</g>
<defs>
<clipPath id="clip0_31_986">
<rect width="1320" height="181" fill="white"/>
</clipPath>
</defs>
</svg>
