<svg width="20" height="20" viewBox="0 0 20 20" fill="none" xmlns="http://www.w3.org/2000/svg">
<path fill-rule="evenodd" clip-rule="evenodd" d="M9 3.4999C7.54131 3.4999 6.14236 4.07936 5.11091 5.11081C4.07946 6.14226 3.5 7.54121 3.5 8.9999C3.5 10.4586 4.07946 11.8575 5.11091 12.889C6.14236 13.9204 7.54131 14.4999 9 14.4999C10.4587 14.4999 11.8576 13.9204 12.8891 12.889C13.9205 11.8575 14.5 10.4586 14.5 8.9999C14.5 7.54121 13.9205 6.14226 12.8891 5.11081C11.8576 4.07936 10.4587 3.4999 9 3.4999ZM2 8.9999C2.00009 7.88057 2.26861 6.77758 2.78303 5.78346C3.29745 4.78934 4.04276 3.93308 4.95645 3.2865C5.87015 2.63991 6.92557 2.22187 8.0342 2.06744C9.14282 1.913 10.2723 2.02667 11.3279 2.39892C12.3836 2.77117 13.3345 3.39113 14.101 4.20681C14.8676 5.02249 15.4273 6.0101 15.7333 7.08679C16.0393 8.16348 16.0827 9.29785 15.8597 10.3948C15.6368 11.4917 15.154 12.5191 14.452 13.3909L17.78 16.7199C17.8537 16.7886 17.9128 16.8714 17.9538 16.9634C17.9948 17.0554 18.0168 17.1547 18.0186 17.2554C18.0204 17.3561 18.0018 17.4561 17.9641 17.5495C17.9264 17.6429 17.8703 17.7277 17.799 17.7989C17.7278 17.8702 17.643 17.9263 17.5496 17.964C17.4562 18.0017 17.3562 18.0203 17.2555 18.0185C17.1548 18.0167 17.0555 17.9947 16.9635 17.9537C16.8715 17.9127 16.7887 17.8536 16.72 17.7799L13.391 14.4519C12.3625 15.2803 11.1207 15.8008 9.80901 15.9535C8.49727 16.1061 7.16912 15.8845 5.97795 15.3144C4.78677 14.7443 3.78117 13.8489 3.07727 12.7315C2.37338 11.6142 1.99991 10.3205 2 8.9999Z" fill="#040404"/>
</svg>
