<svg width="124" height="65" viewBox="0 0 124 65" fill="none" xmlns="http://www.w3.org/2000/svg">
<path d="M34.0001 9.63968C34.0992 9.40136 34.4369 9.40136 34.536 9.63968L35.7353 12.5226C35.7771 12.6231 35.8716 12.6917 35.98 12.7004L39.0928 12.9499C39.3502 12.9705 39.4545 13.2916 39.2584 13.4595L36.8868 15.4908C36.8042 15.5616 36.7681 15.6727 36.7933 15.7785L37.5179 18.8156C37.5778 19.0667 37.3046 19.2652 37.0843 19.1306L34.4193 17.5031C34.3264 17.4464 34.2096 17.4464 34.1167 17.5031L31.4517 19.1306C31.2314 19.2652 30.9583 19.0667 31.0182 18.8156L31.7427 15.7785C31.768 15.6727 31.7319 15.5616 31.6492 15.4908L29.2776 13.4595C29.0816 13.2916 29.1859 12.9705 29.4432 12.9499L32.556 12.7004C32.6645 12.6917 32.759 12.6231 32.8008 12.5226L34.0001 9.63968Z" fill="#FFA807"/>
<path d="M47.9307 9.63968C48.0298 9.40136 48.3675 9.40136 48.4667 9.63968L49.6659 12.5226C49.7077 12.6231 49.8022 12.6917 49.9107 12.7004L53.0235 12.9499C53.2808 12.9705 53.3852 13.2916 53.1891 13.4595L50.8175 15.4908C50.7348 15.5616 50.6987 15.6727 50.724 15.7785L51.4485 18.8156C51.5084 19.0667 51.2353 19.2652 51.0149 19.1306L48.35 17.5031C48.2571 17.4464 48.1403 17.4464 48.0474 17.5031L45.3824 19.1306C45.1621 19.2652 44.8889 19.0667 44.9488 18.8156L45.6734 15.7785C45.6987 15.6727 45.6626 15.5616 45.5799 15.4908L43.2083 13.4595C43.0122 13.2916 43.1166 12.9705 43.3739 12.9499L46.4867 12.7004C46.5952 12.6917 46.6897 12.6231 46.7314 12.5226L47.9307 9.63968Z" fill="#FFA807"/>
<path d="M61.8613 9.63968C61.9605 9.40136 62.2982 9.40136 62.3973 9.63968L63.5966 12.5226C63.6384 12.6231 63.7329 12.6917 63.8414 12.7004L66.9542 12.9499C67.2115 12.9705 67.3158 13.2916 67.1198 13.4595L64.7481 15.4908C64.6655 15.5616 64.6294 15.6727 64.6546 15.7785L65.3792 18.8156C65.4391 19.0667 65.1659 19.2652 64.9456 19.1306L62.2806 17.5031C62.1877 17.4464 62.0709 17.4464 61.9781 17.5031L59.3131 19.1306C59.0928 19.2652 58.8196 19.0667 58.8795 18.8156L59.6041 15.7785C59.6293 15.6727 59.5932 15.5616 59.5106 15.4908L57.1389 13.4595C56.9428 13.2916 57.0472 12.9705 57.3045 12.9499L60.4173 12.7004C60.5258 12.6917 60.6203 12.6231 60.6621 12.5226L61.8613 9.63968Z" fill="#FFA807"/>
<path d="M75.792 9.63968C75.8911 9.40136 76.2288 9.40136 76.328 9.63968L77.5272 12.5226C77.569 12.6231 77.6635 12.6917 77.772 12.7004L80.8848 12.9499C81.1421 12.9705 81.2465 13.2916 81.0504 13.4595L78.6788 15.4908C78.5961 15.5616 78.56 15.6727 78.5853 15.7785L79.3098 18.8156C79.3697 19.0667 79.0966 19.2652 78.8763 19.1306L76.2113 17.5031C76.1184 17.4464 76.0016 17.4464 75.9087 17.5031L73.2437 19.1306C73.0234 19.2652 72.7502 19.0667 72.8101 18.8156L73.5347 15.7785C73.56 15.6727 73.5239 15.5616 73.4412 15.4908L71.0696 13.4595C70.8735 13.2916 70.9779 12.9705 71.2352 12.9499L74.348 12.7004C74.4565 12.6917 74.551 12.6231 74.5927 12.5226L75.792 9.63968Z" fill="#FFA807"/>
<path d="M89.7225 9.63968C89.8217 9.40136 90.1596 9.40136 90.2588 9.63968L91.458 12.5226C91.4998 12.6231 91.5944 12.6917 91.7024 12.7004L94.8153 12.9499C95.073 12.9705 95.1769 13.2916 94.9813 13.4595L92.6096 15.4908C92.5266 15.5616 92.4906 15.6727 92.5162 15.7785L93.2406 18.8156C93.3003 19.0667 93.0269 19.2652 92.807 19.1306L90.1421 17.5031C90.0493 17.4464 89.932 17.4464 89.8392 17.5031L87.1743 19.1306C86.9543 19.2652 86.681 19.0667 86.7407 18.8156L87.4651 15.7785C87.4907 15.6727 87.4547 15.5616 87.3717 15.4908L85.0002 13.4595C84.8041 13.2916 84.9085 12.9705 85.1658 12.9499L88.2789 12.7004C88.3869 12.6917 88.4815 12.6231 88.5233 12.5226L89.7225 9.63968Z" fill="#FFA807"/>
<path fill-rule="evenodd" clip-rule="evenodd" d="M28.3835 63.7815C18.3853 62.3973 11.1066 54.5325 7.78581 43.7824C6.42161 39.3331 6.22416 34.3985 6.69984 29.2392C7.57939 20.0261 11.8066 12.0264 17.9725 6.19299C17.9994 6.16603 18.0084 6.15704 18.0173 6.184C18.0353 6.21097 18.0891 6.23793 18.1161 6.25591C18.152 6.27389 18.1609 6.25591 18.134 6.30085C11.5912 12.2961 7.39091 21.8328 6.93319 31.4683C6.22416 45.2295 12.9016 57.4177 22.9087 61.6153C24.5871 62.3254 26.3462 62.8647 28.1771 63.1433C28.3027 63.3051 28.3745 63.5298 28.3835 63.7815Z" fill="white"/>
<path fill-rule="evenodd" clip-rule="evenodd" d="M3.45986 40.7982C4.27658 41.769 5.57796 42.7217 6.97806 42.3532C7.04986 42.4611 7.41784 43.0004 7.47169 43.0813C7.53451 43.1801 7.65119 43.279 7.74094 43.1981C7.79479 43.1622 7.83966 43.0813 7.78581 42.9554C7.57939 42.7038 7.38194 42.4431 7.14859 42.1734C6.73574 39.9893 6.13441 38.5332 4.87791 37.0591C3.42396 35.3693 1.9341 34.6142 1.00967 34.2996C0.875049 34.2637 0.749399 34.2277 0.614774 34.1828C0.525024 35.0277 0.910949 36.2591 1.2161 36.9602C1.80845 38.3983 2.45465 39.6567 3.45986 40.7982Z" fill="white"/>
<path fill-rule="evenodd" clip-rule="evenodd" d="M15.4864 10.031C15.3697 10.076 14.6876 10.2557 14.6068 10.1209C14.5799 10.085 14.6158 9.95013 14.6786 9.94114C14.9299 9.91418 15.2082 9.8962 15.4505 9.84227C15.8903 8.45806 17.1109 7.85584 18.2327 7.62214C19.579 7.35249 21.0599 7.76596 22.6484 7.99067C22.7292 8.00864 22.819 8.01763 22.8908 8.01763C22.8638 8.07156 22.828 8.10751 22.7921 8.16144C22.1279 9.06927 21.0868 9.90519 20.0726 10.3187C19.3905 10.6063 18.5738 10.7681 17.775 10.7411C16.9314 10.7052 16.2223 10.5164 15.4864 10.031Z" fill="white"/>
<path fill-rule="evenodd" clip-rule="evenodd" d="M18.1161 6.24692C18.1699 6.2649 18.1699 6.24692 18.2686 6.19299C18.4571 6.01322 18.6187 5.90536 18.8071 5.73458C19.8841 5.74357 20.9073 5.41999 21.8766 4.77283C22.3074 4.4852 22.7382 4.13465 23.0972 3.7122C23.9588 2.7864 24.6499 1.42915 24.964 0.188756C24.982 0.116849 24.9909 0.071907 24.9999 0C24.9191 0.0359535 24.8473 0.0719081 24.7666 0.107862C23.0254 0.808955 21.3381 1.13254 19.938 2.48978C18.9866 3.39761 18.493 4.49419 18.6905 5.55482C18.4751 5.72559 18.2507 5.88739 18.0443 6.08513C17.9545 6.16603 18.0622 6.24692 18.1161 6.24692Z" fill="white"/>
<path fill-rule="evenodd" clip-rule="evenodd" d="M11.7797 15.8285C11.663 15.8914 11.0078 16.233 10.9091 16.1162C10.8642 16.0712 10.8822 15.9274 10.945 15.9004C11.1873 15.8105 11.4745 15.7476 11.7169 15.6398C11.8066 14.66 12.3541 13.7432 13.4401 13.114C15.1005 12.2332 16.9852 12.377 18.7623 12.2242C18.852 12.2152 18.9328 12.2152 19.0136 12.2062C18.9866 12.2601 18.9597 12.3051 18.9418 12.359C18.3494 13.3837 17.3891 14.4893 16.4108 15.1184C15.7556 15.5589 14.9479 15.8914 14.1401 16.0532C13.2875 16.224 12.5605 16.1251 11.7797 15.8285Z" fill="white"/>
<path fill-rule="evenodd" clip-rule="evenodd" d="M3.0829 30.947C3.62141 32.1604 4.59071 33.4907 6.00876 33.5806C6.05364 33.7064 6.31391 34.2906 6.34981 34.3805C6.37674 34.5064 6.46649 34.6412 6.58316 34.5873C6.63701 34.5693 6.69086 34.4974 6.68189 34.3715C6.54726 34.048 6.37674 33.7963 6.21519 33.4637C6.34084 31.2346 6.21519 29.6077 5.36256 27.7741C4.39326 25.6618 3.06495 24.4484 2.24823 23.8551C2.1495 23.7653 2.03283 23.6934 1.91615 23.6214C1.72768 24.4843 1.7905 25.8236 1.90718 26.5966C2.1136 28.1606 2.44568 29.5358 3.0829 30.947Z" fill="white"/>
<path fill-rule="evenodd" clip-rule="evenodd" d="M4.67148 21.9946C4.90483 23.2889 5.48821 24.5922 6.78061 25.1585C6.79856 25.2933 6.94216 25.9225 6.96011 26.0213C6.96011 26.1562 7.00499 26.309 7.13064 26.291C7.16654 26.282 7.25629 26.2461 7.26526 26.1112C7.21141 25.7697 7.11269 25.3832 7.04986 25.0146C7.48066 23.4417 7.71401 22.0035 7.64221 20.4665C7.52554 18.3003 6.71779 16.4218 5.44333 14.9117C5.34461 14.8039 5.27281 14.687 5.18306 14.5881C4.82406 15.3342 4.59071 16.6105 4.52788 17.3745C4.39326 18.9205 4.40223 20.4755 4.67148 21.9946Z" fill="white"/>
<path fill-rule="evenodd" clip-rule="evenodd" d="M7.92942 13.8241C7.89352 15.1544 8.21662 16.6465 9.32952 17.5094C9.32054 17.6442 9.29362 18.2913 9.29362 18.3812C9.27567 18.5071 9.28464 18.6599 9.41029 18.6868C9.45517 18.6868 9.53594 18.6778 9.56287 18.552C9.58979 18.2194 9.59877 17.7071 9.61672 17.3386C10.5681 15.7207 11.0796 13.9589 11.0976 11.9455C11.1335 9.61756 10.5591 8.13448 10.1014 7.19969C10.0385 7.07385 9.97572 6.94801 9.91289 6.82218C9.41029 7.43339 8.93462 8.60187 8.71922 9.32094C8.28842 10.7771 7.97429 12.2961 7.92942 13.8241Z" fill="white"/>
<path fill-rule="evenodd" clip-rule="evenodd" d="M12.8657 6.36377C12.5785 7.61315 12.6593 9.44678 13.5927 10.2018C13.5568 10.3636 13.476 10.9209 13.467 11.0467C13.4311 11.1815 13.4042 11.3074 13.5119 11.3613C13.5568 11.3793 13.5927 11.3793 13.6465 11.2624C13.7093 10.9119 13.7273 10.6243 13.7811 10.2647C15.1094 8.84456 15.8633 7.44237 16.2852 5.52785C16.707 3.52344 16.6442 1.9325 16.4647 0.808954C16.4467 0.674128 16.4108 0.539303 16.3749 0.395489C15.2082 1.33028 14.3825 2.56169 13.6824 3.96387C13.3055 4.72788 13.0093 5.50987 12.8657 6.36377Z" fill="white"/>
<path fill-rule="evenodd" clip-rule="evenodd" d="M8.79999 23.4776C8.69229 23.5765 8.09994 24.1428 7.95634 24.0709C7.92044 24.0349 7.89351 23.8462 7.95634 23.8102C8.18071 23.6304 8.46792 23.4956 8.69229 23.3248C8.62049 22.2462 8.86282 21.1496 9.84109 20.125C11.3489 18.6599 13.3503 18.1655 15.1723 17.4105C15.253 17.3745 15.3338 17.3296 15.4325 17.2936C15.4146 17.3565 15.4056 17.4285 15.3787 17.4914C15.0197 18.7497 14.3017 20.2149 13.4311 21.2036C12.8657 21.8687 12.1028 22.5069 11.304 22.9293C10.4693 23.3788 9.67954 23.5226 8.79999 23.4776Z" fill="white"/>
<path fill-rule="evenodd" clip-rule="evenodd" d="M7.54349 32.2593C7.46271 32.4031 6.98704 33.1761 6.83446 33.1401C6.77164 33.1401 6.70881 32.9514 6.75369 32.8795C6.95114 32.6188 7.20244 32.4121 7.37296 32.1424C7.06781 31.1537 7.21141 29.7246 7.94737 28.3583C9.11412 26.3629 10.8194 25.3922 12.4708 23.999C12.5426 23.9271 12.6144 23.8641 12.6952 23.7832C12.7041 23.8462 12.7131 23.9181 12.7041 23.999C12.6682 25.3652 12.3092 27.082 11.672 28.3763C11.2591 29.2482 10.6488 30.12 9.9488 30.8481C9.22182 31.5762 8.44997 31.9986 7.54349 32.2593Z" fill="white"/>
<path fill-rule="evenodd" clip-rule="evenodd" d="M8.36919 40.8701C8.30637 41.0409 7.98327 41.9577 7.82172 41.9937C7.76787 41.9847 7.66017 41.8499 7.70504 41.751C7.83967 41.4454 7.99224 41.0948 8.11789 40.7803C7.56144 40.2499 7.37296 38.7758 7.82172 37.2298C8.56664 34.9648 10.227 33.266 11.5643 31.3874C11.6271 31.2975 11.69 31.2076 11.7528 31.1178C11.7707 31.1807 11.7797 31.2526 11.7977 31.3245C12.031 32.6458 12.0131 34.3985 11.654 35.8277C11.4117 36.7804 10.9899 37.8321 10.4424 38.7309C9.877 39.6837 9.20387 40.3398 8.36919 40.8701Z" fill="white"/>
<path fill-rule="evenodd" clip-rule="evenodd" d="M6.36776 50.9461C7.38194 51.6112 9.19489 52.1146 10.4424 51.2966C10.5411 51.3685 11.0617 51.6831 11.1245 51.7371C11.2143 51.827 11.3399 51.8899 11.4207 51.764C11.4656 51.7101 11.4925 51.6202 11.4027 51.5214C11.1425 51.3416 10.8553 51.2247 10.577 51.045C9.62569 49.0675 8.60254 47.7283 7.03191 46.7395C5.23691 45.589 3.73808 45.5711 2.77775 45.5711C2.64313 45.5711 2.5085 45.58 2.37388 45.58C2.60723 47.5305 5.02151 50.1102 6.36776 50.9461Z" fill="white"/>
<path fill-rule="evenodd" clip-rule="evenodd" d="M11.3489 49.4181C11.3399 49.5439 11.2771 50.1012 11.1873 50.4427C11.1604 50.5416 11.1514 50.6854 11.0168 50.6315C10.963 50.6225 10.9091 50.5057 10.9091 50.4517C10.9719 50.1192 11.0258 49.7417 11.0527 49.4091C10.4334 49.0136 9.94879 47.7193 9.85007 46.1283C9.95777 43.7284 11.0348 41.5532 11.8964 39.2882C11.9233 39.1893 11.9592 39.0814 11.9951 38.9736C12.031 39.0275 12.0489 39.0814 12.0848 39.1354C12.6593 40.3218 13.099 41.9847 13.1349 43.4858C13.1708 44.4655 13.0272 45.607 12.74 46.6676C12.4349 47.7552 11.9861 48.6091 11.3489 49.4181Z" fill="white"/>
<path fill-rule="evenodd" clip-rule="evenodd" d="M11.8605 59.1525C13.0272 59.3862 14.6068 59.3322 15.5941 58.0739C15.8454 58.1098 16.2493 58.1728 16.5095 58.1907C16.5813 58.1997 16.6352 58.1458 16.6621 58.0559C16.6801 57.993 16.6621 57.9121 16.5454 57.8492C16.2493 57.7862 15.9531 57.7863 15.639 57.7323C14.3286 56.1953 13.0901 55.3324 11.304 55.0088C9.23977 54.6313 7.48964 55.1616 6.55624 55.5481C6.43059 55.5931 6.29596 55.647 6.17929 55.7099C6.51136 56.456 7.48066 57.22 8.09096 57.5885C9.25772 58.3615 10.4514 58.9188 11.8605 59.1525Z" fill="white"/>
<path fill-rule="evenodd" clip-rule="evenodd" d="M16.0339 55.9077C16.0518 56.0425 16.0698 56.5818 16.0698 56.9413C16.0608 57.0402 16.0877 57.175 15.9531 57.184C15.8903 57.184 15.8185 57.1031 15.8185 57.0402C15.7915 56.7076 15.8095 56.3481 15.7556 56.0066C15.0646 55.7908 14.1491 54.7392 13.7273 53.2921C13.2426 50.9731 13.7722 48.5822 14.0235 46.1283C14.0414 46.0205 14.0324 45.9126 14.0414 45.7958C14.0863 45.8407 14.1401 45.8856 14.185 45.9306C15.0287 46.8564 15.8723 48.2855 16.2762 49.6877C16.5544 50.6045 16.698 51.7371 16.698 52.8247C16.6801 53.9662 16.4467 54.9279 16.0339 55.9077Z" fill="white"/>
<path fill-rule="evenodd" clip-rule="evenodd" d="M22.5677 60.6266C22.6305 60.7255 22.7113 61.1749 22.801 61.5164C22.8279 61.5973 22.8818 61.7232 22.7561 61.7681C22.6933 61.7951 22.6125 61.7411 22.5946 61.6872C22.4779 61.3996 22.4779 61.094 22.3343 60.8064C21.6612 60.9681 20.4944 60.1142 19.7316 58.9997C18.6725 57.0762 18.5558 54.8201 18.143 52.5281C18.134 52.4202 18.0981 52.3213 18.0802 52.2135C18.134 52.2225 18.1879 52.2584 18.2417 52.2764C19.2559 52.7887 20.4137 53.6965 21.1586 54.8111C21.6702 55.5302 22.1458 56.5279 22.4151 57.5256C22.6933 58.5772 22.7023 59.5749 22.5677 60.6266Z" fill="white"/>
<path fill-rule="evenodd" clip-rule="evenodd" d="M18.8969 64.905C20.0906 64.7433 21.6343 64.195 22.3164 62.6669C22.5587 62.595 22.9805 62.5501 23.2318 62.4782C23.3036 62.4692 23.3395 62.3883 23.3485 62.2894C23.3485 62.2355 23.3126 62.1546 23.1869 62.1366C22.8908 62.1816 22.5946 62.2715 22.2625 62.3074C20.5303 61.2827 19.1302 60.8153 17.3083 61.076C15.2171 61.3726 13.6914 62.4243 12.8747 63.0984C12.758 63.1973 12.6413 63.2871 12.5336 63.386C13.0362 64.0062 14.1671 64.4197 14.8402 64.5994C16.1595 64.968 17.4519 65.1118 18.8969 64.905Z" fill="white"/>
<path fill-rule="evenodd" clip-rule="evenodd" d="M95.8737 63.7815C105.872 62.3973 113.151 54.5325 116.471 43.7824C117.836 39.3331 118.033 34.3985 117.557 29.2392C116.678 20.0261 112.451 12.0264 106.285 6.19299C106.258 6.16603 106.249 6.15704 106.24 6.184C106.222 6.21097 106.168 6.23793 106.141 6.25591C106.105 6.27389 106.096 6.25591 106.123 6.30085C112.666 12.2961 116.866 21.8328 117.324 31.4683C118.033 45.2295 111.356 57.4177 101.348 61.6153C99.6702 62.3254 97.9111 62.8647 96.0801 63.1433C95.9545 63.3051 95.8827 63.5298 95.8737 63.7815Z" fill="white"/>
<path fill-rule="evenodd" clip-rule="evenodd" d="M120.797 40.7982C119.981 41.769 118.679 42.7217 117.279 42.3532C117.207 42.4611 116.839 43.0004 116.786 43.0813C116.723 43.1801 116.606 43.279 116.516 43.1981C116.462 43.1622 116.418 43.0813 116.471 42.9554C116.678 42.7038 116.875 42.4431 117.109 42.1734C117.521 39.9893 118.123 38.5332 119.379 37.0591C120.833 35.3693 122.323 34.6142 123.248 34.2996C123.382 34.2637 123.508 34.2277 123.642 34.1828C123.732 35.0277 123.346 36.2591 123.041 36.9602C122.449 38.3983 121.803 39.6567 120.797 40.7982Z" fill="white"/>
<path fill-rule="evenodd" clip-rule="evenodd" d="M108.771 10.031C108.888 10.076 109.57 10.2557 109.65 10.1209C109.677 10.085 109.641 9.95013 109.579 9.94114C109.327 9.91418 109.049 9.8962 108.807 9.84227C108.367 8.45806 107.146 7.85584 106.024 7.62214C104.678 7.35249 103.197 7.76596 101.609 7.99067C101.528 8.00864 101.438 8.01763 101.366 8.01763C101.393 8.07156 101.429 8.10751 101.465 8.16144C102.129 9.06927 103.17 9.90519 104.185 10.3187C104.867 10.6063 105.683 10.7681 106.482 10.7411C107.326 10.7052 108.035 10.5164 108.771 10.031Z" fill="white"/>
<path fill-rule="evenodd" clip-rule="evenodd" d="M106.141 6.24692C106.087 6.2649 106.087 6.24692 105.989 6.19299C105.8 6.01322 105.639 5.90536 105.45 5.73458C104.373 5.74357 103.35 5.41999 102.381 4.77283C101.95 4.4852 101.519 4.13465 101.16 3.7122C100.298 2.7864 99.6073 1.42915 99.2932 0.188756C99.2753 0.116849 99.2663 0.071907 99.2573 0C99.3381 0.0359535 99.4099 0.0719081 99.4907 0.107862C101.232 0.808955 102.919 1.13254 104.319 2.48978C105.271 3.39761 105.764 4.49419 105.567 5.55482C105.782 5.72559 106.007 5.88739 106.213 6.08513C106.303 6.16603 106.195 6.24692 106.141 6.24692Z" fill="white"/>
<path fill-rule="evenodd" clip-rule="evenodd" d="M112.478 15.8285C112.594 15.8914 113.249 16.233 113.348 16.1162C113.393 16.0712 113.375 15.9274 113.312 15.9004C113.07 15.8105 112.783 15.7476 112.54 15.6398C112.451 14.66 111.903 13.7432 110.817 13.114C109.157 12.2332 107.272 12.377 105.495 12.2242C105.405 12.2152 105.324 12.2152 105.244 12.2062C105.271 12.2601 105.297 12.3051 105.315 12.359C105.908 13.3837 106.868 14.4893 107.846 15.1184C108.502 15.5589 109.309 15.8914 110.117 16.0532C110.97 16.224 111.697 16.1251 112.478 15.8285Z" fill="white"/>
<path fill-rule="evenodd" clip-rule="evenodd" d="M121.174 30.947C120.636 32.1604 119.667 33.4907 118.248 33.5806C118.204 33.7064 117.943 34.2906 117.907 34.3805C117.88 34.5064 117.791 34.6412 117.674 34.5873C117.62 34.5693 117.566 34.4974 117.575 34.3715C117.71 34.048 117.88 33.7963 118.042 33.4637C117.916 31.2346 118.042 29.6077 118.895 27.7741C119.864 25.6618 121.192 24.4484 122.009 23.8551C122.108 23.7653 122.224 23.6934 122.341 23.6214C122.53 24.4843 122.467 25.8236 122.35 26.5966C122.144 28.1606 121.812 29.5358 121.174 30.947Z" fill="white"/>
<path fill-rule="evenodd" clip-rule="evenodd" d="M119.586 21.9946C119.352 23.2889 118.769 24.5922 117.477 25.1585C117.459 25.2933 117.315 25.9225 117.297 26.0213C117.297 26.1562 117.252 26.309 117.127 26.291C117.091 26.282 117.001 26.2461 116.992 26.1112C117.046 25.7697 117.145 25.3832 117.207 25.0146C116.777 23.4417 116.543 22.0035 116.615 20.4665C116.732 18.3003 117.539 16.4218 118.814 14.9117C118.913 14.8039 118.984 14.687 119.074 14.5881C119.433 15.3342 119.666 16.6105 119.729 17.3745C119.864 18.9205 119.855 20.4755 119.586 21.9946Z" fill="white"/>
<path fill-rule="evenodd" clip-rule="evenodd" d="M116.328 13.8241C116.364 15.1544 116.041 16.6465 114.928 17.5094C114.937 17.6442 114.964 18.2913 114.964 18.3812C114.982 18.5071 114.973 18.6599 114.847 18.6868C114.802 18.6868 114.721 18.6778 114.694 18.552C114.667 18.2194 114.658 17.7071 114.64 17.3386C113.689 15.7207 113.178 13.9589 113.16 11.9455C113.124 9.61756 113.698 8.13448 114.156 7.19969C114.219 7.07385 114.281 6.94801 114.344 6.82218C114.847 7.43339 115.323 8.60187 115.538 9.32094C115.969 10.7771 116.283 12.2961 116.328 13.8241Z" fill="white"/>
<path fill-rule="evenodd" clip-rule="evenodd" d="M111.392 6.36377C111.679 7.61315 111.598 9.44678 110.665 10.2018C110.7 10.3636 110.781 10.9209 110.79 11.0467C110.826 11.1815 110.853 11.3074 110.745 11.3613C110.7 11.3793 110.665 11.3793 110.611 11.2624C110.548 10.9119 110.53 10.6243 110.476 10.2647C109.148 8.84456 108.394 7.44237 107.972 5.52785C107.55 3.52344 107.613 1.9325 107.793 0.808954C107.81 0.674128 107.846 0.539303 107.882 0.395489C109.049 1.33028 109.875 2.56169 110.575 3.96387C110.952 4.72788 111.248 5.50987 111.392 6.36377Z" fill="white"/>
<path fill-rule="evenodd" clip-rule="evenodd" d="M115.457 23.4776C115.565 23.5765 116.157 24.1428 116.301 24.0709C116.337 24.0349 116.364 23.8462 116.301 23.8102C116.076 23.6304 115.789 23.4956 115.565 23.3248C115.637 22.2462 115.394 21.1496 114.416 20.125C112.908 18.6599 110.907 18.1655 109.085 17.4105C109.004 17.3745 108.923 17.3296 108.825 17.2936C108.843 17.3565 108.852 17.4285 108.879 17.4914C109.238 18.7497 109.956 20.2149 110.826 21.2036C111.392 21.8687 112.154 22.5069 112.953 22.9293C113.788 23.3788 114.578 23.5226 115.457 23.4776Z" fill="white"/>
<path fill-rule="evenodd" clip-rule="evenodd" d="M116.714 32.2593C116.794 32.4031 117.27 33.1761 117.423 33.1401C117.486 33.1401 117.548 32.9514 117.504 32.8795C117.306 32.6188 117.055 32.4121 116.884 32.1424C117.189 31.1537 117.046 29.7246 116.31 28.3583C115.143 26.3629 113.438 25.3922 111.786 23.999C111.715 23.9271 111.643 23.8641 111.562 23.7832C111.553 23.8462 111.544 23.9181 111.553 23.999C111.589 25.3652 111.948 27.082 112.585 28.3763C112.998 29.2482 113.608 30.12 114.308 30.8481C115.035 31.5762 115.807 31.9986 116.714 32.2593Z" fill="white"/>
<path fill-rule="evenodd" clip-rule="evenodd" d="M115.888 40.8701C115.951 41.0409 116.274 41.9577 116.435 41.9937C116.489 41.9847 116.597 41.8499 116.552 41.751C116.418 41.4454 116.265 41.0948 116.139 40.7803C116.696 40.2499 116.884 38.7758 116.435 37.2298C115.691 34.9648 114.03 33.266 112.693 31.3874C112.63 31.2975 112.567 31.2076 112.504 31.1178C112.486 31.1807 112.478 31.2526 112.46 31.3245C112.226 32.6458 112.244 34.3985 112.603 35.8277C112.845 36.7804 113.267 37.8321 113.815 38.7309C114.38 39.6837 115.053 40.3398 115.888 40.8701Z" fill="white"/>
<path fill-rule="evenodd" clip-rule="evenodd" d="M117.889 50.9461C116.875 51.6112 115.062 52.1146 113.815 51.2966C113.716 51.3685 113.196 51.6831 113.133 51.7371C113.043 51.827 112.917 51.8899 112.837 51.764C112.792 51.7101 112.765 51.6202 112.854 51.5214C113.115 51.3416 113.402 51.2247 113.68 51.045C114.632 49.0675 115.655 47.7283 117.225 46.7395C119.02 45.589 120.519 45.5711 121.479 45.5711C121.614 45.5711 121.749 45.58 121.883 45.58C121.65 47.5305 119.236 50.1102 117.889 50.9461Z" fill="white"/>
<path fill-rule="evenodd" clip-rule="evenodd" d="M112.908 49.4181C112.917 49.5439 112.98 50.1012 113.07 50.4427C113.097 50.5416 113.106 50.6854 113.24 50.6315C113.294 50.6225 113.348 50.5057 113.348 50.4517C113.285 50.1192 113.231 49.7417 113.204 49.4091C113.824 49.0136 114.308 47.7193 114.407 46.1283C114.299 43.7284 113.222 41.5532 112.361 39.2882C112.334 39.1893 112.298 39.0814 112.262 38.9736C112.226 39.0275 112.208 39.0814 112.172 39.1354C111.598 40.3218 111.158 41.9847 111.122 43.4858C111.086 44.4655 111.23 45.607 111.517 46.6676C111.822 47.7552 112.271 48.6091 112.908 49.4181Z" fill="white"/>
<path fill-rule="evenodd" clip-rule="evenodd" d="M112.397 59.1525C111.23 59.3862 109.65 59.3322 108.663 58.0739C108.412 58.1098 108.008 58.1728 107.748 58.1907C107.676 58.1997 107.622 58.1458 107.595 58.0559C107.577 57.993 107.595 57.9121 107.712 57.8492C108.008 57.7862 108.304 57.7863 108.618 57.7323C109.929 56.1953 111.167 55.3324 112.953 55.0088C115.017 54.6313 116.768 55.1616 117.701 55.5481C117.827 55.5931 117.961 55.647 118.078 55.7099C117.746 56.456 116.777 57.22 116.166 57.5885C114.999 58.3615 113.806 58.9188 112.397 59.1525Z" fill="white"/>
<path fill-rule="evenodd" clip-rule="evenodd" d="M108.223 55.9077C108.205 56.0425 108.187 56.5818 108.187 56.9413C108.196 57.0402 108.169 57.175 108.304 57.184C108.367 57.184 108.439 57.1031 108.439 57.0402C108.466 56.7076 108.448 56.3481 108.502 56.0066C109.193 55.7908 110.108 54.7392 110.53 53.2921C111.015 50.9731 110.485 48.5822 110.234 46.1283C110.216 46.0205 110.225 45.9126 110.216 45.7958C110.171 45.8407 110.117 45.8856 110.072 45.9306C109.229 46.8564 108.385 48.2855 107.981 49.6877C107.703 50.6045 107.559 51.7371 107.559 52.8247C107.577 53.9662 107.81 54.9279 108.223 55.9077Z" fill="white"/>
<path fill-rule="evenodd" clip-rule="evenodd" d="M101.69 60.6266C101.627 60.7255 101.546 61.1749 101.456 61.5164C101.429 61.5973 101.375 61.7232 101.501 61.7681C101.564 61.7951 101.645 61.7411 101.663 61.6872C101.779 61.3996 101.779 61.094 101.923 60.8064C102.596 60.9681 103.763 60.1142 104.526 58.9997C105.585 57.0762 105.701 54.8201 106.114 52.5281C106.123 52.4202 106.159 52.3213 106.177 52.2135C106.123 52.2225 106.069 52.2584 106.016 52.2764C105.001 52.7887 103.844 53.6965 103.099 54.8111C102.587 55.5302 102.111 56.5279 101.842 57.5256C101.564 58.5772 101.555 59.5749 101.69 60.6266Z" fill="white"/>
<path fill-rule="evenodd" clip-rule="evenodd" d="M105.36 64.905C104.167 64.7433 102.623 64.195 101.941 62.6669C101.699 62.595 101.277 62.5501 101.025 62.4782C100.954 62.4692 100.918 62.3883 100.909 62.2894C100.909 62.2355 100.945 62.1546 101.07 62.1366C101.366 62.1816 101.663 62.2715 101.995 62.3074C103.727 61.2827 105.127 60.8153 106.949 61.076C109.04 61.3726 110.566 62.4243 111.383 63.0984C111.499 63.1973 111.616 63.2871 111.724 63.386C111.221 64.0062 110.09 64.4197 109.417 64.5994C108.098 64.968 106.805 65.1118 105.36 64.905Z" fill="white"/>
<path d="M68.5143 26.1268C67.1128 26.1268 65.7429 27.3958 65.5853 29.2292V26.278H63.5728V35.1768H65.61V30.8694C65.61 29.6628 66.4652 27.9608 68.5143 27.9608V26.1268Z" fill="white"/>
<path d="M89.8843 33.7521V27.6554H91.0644C92.6382 27.6554 93.9165 28.6387 93.9165 30.6546C93.9165 32.6704 92.6382 33.7521 91.0644 33.7521H89.8843ZM87.868 35.178H91.3105C93.425 35.178 96.0313 33.8013 96.0313 30.6546C96.0313 27.5571 93.425 26.2787 91.3105 26.2787H87.868V35.178Z" fill="white"/>
<path d="M80.1538 30.7531C80.1538 29.1306 80.9896 27.8031 82.3664 27.8031C83.6941 27.8031 84.4317 29.1306 84.4317 30.7531C84.4317 32.3756 83.6941 33.7031 82.3664 33.7031C80.9896 33.7031 80.1538 32.3756 80.1538 30.7531ZM78.0884 30.8514C78.0884 33.5065 79.4652 35.3748 81.6287 35.3748C83.2025 35.3748 84.1369 34.3423 84.6284 32.6706V35.1781H86.6444V26.2789H84.6284V28.6389C84.186 27.0655 83.2516 26.1314 81.7763 26.1314C79.5634 26.1314 78.0884 28.1472 78.0884 30.8514Z" fill="white"/>
<path d="M32.1766 35.3748C29.6687 35.3748 28.1935 33.359 28.1935 30.8514C28.1935 28.2456 29.8162 26.1314 32.9142 26.1314C36.1106 26.1314 37.1924 28.2947 37.2416 29.5239H34.9304C34.8812 28.8356 34.2911 27.8031 32.8651 27.8031C31.3406 27.8031 30.3572 29.1306 30.3572 30.7531C30.3572 32.3756 31.3406 33.7031 32.8651 33.7031C34.2419 33.7031 34.832 32.6214 35.0779 31.5398H32.8651V30.6548H37.5084V35.1781H35.4713V32.3265C35.3238 33.359 34.6845 35.3748 32.1766 35.3748Z" fill="white"/>
<path d="M41.6384 35.3747C39.7206 35.3747 38.5404 34.0963 38.5404 31.5396V26.2787H40.6058V31.5396C40.6058 32.8672 41.245 33.5063 42.3269 33.5063C44.4414 33.5063 45.2282 30.9005 45.2282 29.0813V26.2787H47.2935V35.178H45.2774V31.8838C44.8839 33.703 43.8021 35.3747 41.6384 35.3747Z" fill="white"/>
<path d="M59.6356 26.1268C57.8735 26.1268 56.7619 27.8288 56.3991 29.4024C56.337 27.2935 55.2998 26.1268 53.6402 26.1268C52.2064 26.1268 50.8762 27.4053 50.5307 29.4278V26.2782H48.5174V35.1777H50.5565V31.9873C50.5565 31.1964 50.8863 27.9505 52.9391 27.9505C54.2688 27.9505 54.4075 29.1498 54.4075 30.7891V35.1777H56.4457V31.9873C56.4457 31.1964 56.7891 27.9505 58.8419 27.9505C60.1706 27.9505 60.3079 29.1498 60.3079 30.7891V35.1777H62.3489V29.9137C62.3582 27.3884 61.4664 26.1268 59.6356 26.1268Z" fill="white"/>
<path d="M72.8892 26.1268C70.2491 26.1268 68.4605 28.1964 68.4605 30.7509C68.4605 33.5655 70.1619 35.3749 72.8892 35.3749C75.529 35.3749 77.3495 33.3053 77.3495 30.7509C77.3495 27.9363 75.6153 26.1268 72.8892 26.1268ZM72.8892 33.7997C71.3523 33.7997 70.3567 32.4988 70.3567 30.7509C70.3567 29.003 71.3557 27.7021 72.8892 27.7021C74.4224 27.7021 75.3811 29.003 75.3811 30.7509C75.3811 32.4988 74.4211 33.7997 72.8892 33.7997Z" fill="white"/>
<path d="M31.339 49.3304L32.3363 43.2524H33.0487L32.0514 49.3304H31.339ZM28.5875 47.704L28.7033 46.9918H33.3099L33.1941 47.704H28.5875ZM29.2019 49.3304L30.1992 43.2524H30.9116L29.9143 49.3304H29.2019ZM28.9407 45.591L29.0565 44.8788H33.6631L33.5474 45.591H28.9407Z" fill="white"/>
<path d="M36.6424 43.2524V49.3304H35.7222V44.1724H35.6866L34.2322 45.1221V44.2437L35.749 43.2524H36.6424Z" fill="white"/>
<path d="M42.4829 49.3304H40.515V43.2524H42.5453C43.1409 43.2524 43.6524 43.3741 44.0798 43.6175C44.5072 43.8588 44.8347 44.2061 45.0623 44.6591C45.2918 45.1102 45.4066 45.6514 45.4066 46.2825C45.4066 46.9156 45.2908 47.4597 45.0593 47.9147C44.8298 48.3698 44.4973 48.72 44.062 48.9653C43.6267 49.2087 43.1003 49.3304 42.4829 49.3304ZM41.4322 48.5291H42.4325C42.8955 48.5291 43.2804 48.442 43.5871 48.2679C43.8938 48.0918 44.1233 47.8376 44.2757 47.5052C44.4281 47.1708 44.5043 46.7633 44.5043 46.2825C44.5043 45.8057 44.4281 45.4011 44.2757 45.0687C44.1253 44.7363 43.9007 44.484 43.6019 44.3119C43.3031 44.1398 42.9321 44.0537 42.4889 44.0537H41.4322V48.5291Z" fill="white"/>
<path d="M48.4074 49.4224C47.9582 49.4224 47.5713 49.3264 47.2468 49.1345C46.9243 48.9406 46.6749 48.6686 46.4988 48.3184C46.3247 47.9662 46.2376 47.5537 46.2376 47.0808C46.2376 46.6139 46.3247 46.2024 46.4988 45.8462C46.6749 45.4901 46.9203 45.2121 47.2349 45.0123C47.5515 44.8125 47.9216 44.7126 48.345 44.7126C48.6023 44.7126 48.8516 44.7551 49.093 44.8402C49.3344 44.9252 49.5511 45.0588 49.7431 45.2408C49.935 45.4228 50.0864 45.6593 50.1972 45.9501C50.308 46.239 50.3634 46.5901 50.3634 47.0037V47.3182H46.7393V46.6535H49.4937C49.4937 46.42 49.4462 46.2132 49.3513 46.0332C49.2563 45.8512 49.1227 45.7077 48.9506 45.6029C48.7804 45.498 48.5805 45.4456 48.351 45.4456C48.1017 45.4456 47.884 45.5069 47.698 45.6296C47.514 45.7503 47.3715 45.9086 47.2706 46.1044C47.1716 46.2983 47.1222 46.509 47.1222 46.7366V47.2559C47.1222 47.5606 47.1756 47.8198 47.2824 48.0335C47.3913 48.2471 47.5426 48.4104 47.7366 48.5231C47.9305 48.6339 48.1571 48.6893 48.4163 48.6893C48.5845 48.6893 48.7378 48.6656 48.8763 48.6181C49.0149 48.5686 49.1346 48.4954 49.2355 48.3985C49.3364 48.3015 49.4136 48.1818 49.467 48.0394L50.307 48.1907C50.2397 48.4381 50.119 48.6547 49.9449 48.8407C49.7727 49.0247 49.5561 49.1681 49.2949 49.271C49.0356 49.3719 48.7398 49.4224 48.4074 49.4224Z" fill="white"/>
<path d="M54.731 45.8848L53.9267 46.0273C53.893 45.9244 53.8396 45.8264 53.7664 45.7335C53.6951 45.6405 53.5982 45.5643 53.4755 45.5049C53.3528 45.4456 53.1995 45.4159 53.0154 45.4159C52.7641 45.4159 52.5544 45.4723 52.3862 45.5851C52.218 45.6959 52.1339 45.8393 52.1339 46.0154C52.1339 46.1677 52.1903 46.2904 52.3031 46.3834C52.4159 46.4764 52.5979 46.5526 52.8492 46.6119L53.5734 46.7781C53.9929 46.875 54.3056 47.0244 54.5114 47.2262C54.7172 47.428 54.8201 47.6902 54.8201 48.0127C54.8201 48.2857 54.7409 48.5291 54.5826 48.7427C54.4263 48.9544 54.2077 49.1206 53.9267 49.2413C53.6477 49.362 53.3241 49.4224 52.9561 49.4224C52.4455 49.4224 52.029 49.3135 51.7065 49.0959C51.3839 48.8763 51.186 48.5647 51.1128 48.1611L51.9706 48.0305C52.0241 48.2541 52.1339 48.4232 52.3001 48.538C52.4663 48.6507 52.683 48.7071 52.9501 48.7071C53.241 48.7071 53.4735 48.6468 53.6477 48.5261C53.8218 48.4034 53.9089 48.2541 53.9089 48.078C53.9089 47.9355 53.8554 47.8158 53.7486 47.7189C53.6437 47.6219 53.4824 47.5487 53.2648 47.4993L52.493 47.3301C52.0676 47.2332 51.753 47.0788 51.5491 46.8671C51.3473 46.6554 51.2464 46.3874 51.2464 46.0629C51.2464 45.7938 51.3216 45.5584 51.472 45.3566C51.6224 45.1548 51.8301 44.9975 52.0953 44.8847C52.3605 44.7699 52.6642 44.7126 53.0065 44.7126C53.4992 44.7126 53.8871 44.8194 54.1701 45.0331C54.453 45.2448 54.64 45.5287 54.731 45.8848Z" fill="white"/>
<path d="M55.7624 49.3304V44.7719H56.6499V49.3304H55.7624ZM56.2106 44.0686C56.0563 44.0686 55.9237 44.0171 55.8129 43.9142C55.7041 43.8094 55.6496 43.6847 55.6496 43.5403C55.6496 43.3939 55.7041 43.2693 55.8129 43.1664C55.9237 43.0615 56.0563 43.0091 56.2106 43.0091C56.365 43.0091 56.4966 43.0615 56.6054 43.1664C56.7162 43.2693 56.7716 43.3939 56.7716 43.5403C56.7716 43.6847 56.7162 43.8094 56.6054 43.9142C56.4966 44.0171 56.365 44.0686 56.2106 44.0686Z" fill="white"/>
<path d="M59.7219 51.1347C59.3598 51.1347 59.0482 51.0873 58.787 50.9923C58.5277 50.8973 58.316 50.7717 58.1518 50.6154C57.9875 50.4591 57.8649 50.2879 57.7837 50.102L58.5465 49.7874C58.6 49.8744 58.6712 49.9664 58.7603 50.0634C58.8513 50.1623 58.974 50.2464 59.1283 50.3156C59.2846 50.3849 59.4855 50.4195 59.7308 50.4195C60.0672 50.4195 60.3453 50.3374 60.5649 50.1732C60.7846 50.011 60.8944 49.7518 60.8944 49.3956V48.4994H60.838C60.7846 48.5963 60.7074 48.7042 60.6065 48.8229C60.5075 48.9416 60.371 49.0445 60.1968 49.1315C60.0227 49.2186 59.7961 49.2621 59.5171 49.2621C59.157 49.2621 58.8325 49.178 58.5436 49.0098C58.2567 48.8397 58.0291 48.5894 57.8609 48.259C57.6947 47.9266 57.6116 47.5181 57.6116 47.0333C57.6116 46.5486 57.6937 46.1331 57.8579 45.7869C58.0241 45.4406 58.2517 45.1755 58.5406 44.9915C58.8295 44.8055 59.157 44.7126 59.5231 44.7126C59.806 44.7126 60.0346 44.76 60.2087 44.855C60.3829 44.948 60.5184 45.0568 60.6154 45.1815C60.7143 45.3061 60.7905 45.4159 60.8439 45.5109H60.9092V44.7719H61.7789V49.4313C61.7789 49.823 61.6879 50.1445 61.5058 50.3958C61.3238 50.647 61.0774 50.833 60.7667 50.9537C60.4581 51.0744 60.1098 51.1347 59.7219 51.1347ZM59.713 48.5261C59.9683 48.5261 60.184 48.4667 60.3601 48.348C60.5382 48.2273 60.6728 48.0552 60.7638 47.8316C60.8568 47.6061 60.9033 47.336 60.9033 47.0215C60.9033 46.7148 60.8578 46.4447 60.7667 46.2113C60.6757 45.9778 60.5422 45.7958 60.366 45.6652C60.1899 45.5326 59.9723 45.4664 59.713 45.4664C59.4459 45.4664 59.2233 45.5356 59.0452 45.6741C58.8671 45.8106 58.7326 45.9966 58.6415 46.232C58.5525 46.4675 58.508 46.7306 58.508 47.0215C58.508 47.3202 58.5535 47.5824 58.6445 47.8079C58.7355 48.0335 58.8701 48.2095 59.0482 48.3362C59.2282 48.4628 59.4499 48.5261 59.713 48.5261Z" fill="white"/>
<path d="M63.8232 46.6238V49.3304H62.9357V44.7719H63.7876V45.5139H63.844C63.9488 45.2725 64.1131 45.0786 64.3367 44.9322C64.5623 44.7858 64.8462 44.7126 65.1885 44.7126C65.4992 44.7126 65.7713 44.7779 66.0048 44.9084C66.2383 45.037 66.4194 45.2289 66.548 45.4842C66.6766 45.7394 66.7409 46.055 66.7409 46.4309V49.3304H65.8534V46.5377C65.8534 46.2073 65.7673 45.9491 65.5952 45.7631C65.423 45.5752 65.1866 45.4812 64.8858 45.4812C64.68 45.4812 64.497 45.5257 64.3367 45.6147C64.1784 45.7038 64.0527 45.8344 63.9597 46.0065C63.8687 46.1766 63.8232 46.3824 63.8232 46.6238Z" fill="white"/>
<path d="M71.8453 49.4164C71.4377 49.4164 71.0865 49.3422 70.7916 49.1938C70.4988 49.0455 70.2732 48.8436 70.1149 48.5884C69.9566 48.3312 69.8774 48.0404 69.8774 47.7159C69.8774 47.4686 69.9289 47.249 70.0318 47.0571C70.1347 46.8632 70.2781 46.6841 70.4622 46.5199C70.6462 46.3557 70.8589 46.1905 71.1003 46.0243L72.0798 45.3328C72.246 45.224 72.3757 45.1092 72.4687 44.9886C72.5617 44.8659 72.6082 44.7145 72.6082 44.5345C72.6082 44.392 72.5468 44.2555 72.4241 44.125C72.3015 43.9944 72.1372 43.9291 71.9314 43.9291C71.7889 43.9291 71.6633 43.9637 71.5545 44.033C71.4476 44.1022 71.3635 44.1912 71.3022 44.3C71.2428 44.4069 71.2131 44.5197 71.2131 44.6384C71.2131 44.7769 71.2507 44.9163 71.3259 45.0568C71.4031 45.1973 71.502 45.3427 71.6227 45.4931C71.7434 45.6415 71.8701 45.7958 72.0027 45.956L74.8254 49.3304H73.8222L71.4862 46.5852C71.2903 46.3537 71.1082 46.1361 70.94 45.9323C70.7719 45.7265 70.6353 45.5188 70.5304 45.3091C70.4275 45.0974 70.3761 44.8689 70.3761 44.6235C70.3761 44.3446 70.4394 44.0973 70.5661 43.8816C70.6947 43.664 70.8738 43.4938 71.1033 43.3711C71.3328 43.2485 71.602 43.1871 71.9106 43.1871C72.2233 43.1871 72.4914 43.2485 72.715 43.3711C72.9406 43.4918 73.1137 43.6531 73.2345 43.8549C73.3571 44.0547 73.4185 44.2733 73.4185 44.5108C73.4185 44.7996 73.3462 45.0548 73.2018 45.2764C73.0593 45.496 72.8624 45.6978 72.6111 45.8818L71.3912 46.7811C71.1538 46.9552 70.9885 47.1273 70.8955 47.2975C70.8045 47.4656 70.759 47.5972 70.759 47.6922C70.759 47.8663 70.8035 48.0275 70.8926 48.1759C70.9836 48.3243 71.1102 48.443 71.2725 48.532C71.4367 48.6211 71.6287 48.6656 71.8483 48.6656C72.0739 48.6656 72.2935 48.6171 72.5072 48.5202C72.7229 48.4212 72.9178 48.2798 73.092 48.0958C73.2681 47.9118 73.4076 47.6912 73.5105 47.434C73.6134 47.1768 73.6648 46.8889 73.6648 46.5704H74.4662C74.4662 46.9621 74.4217 47.2935 74.3327 47.5646C74.2436 47.8336 74.1358 48.0532 74.0091 48.2234C73.8845 48.3916 73.7667 48.5231 73.6559 48.6181C73.6203 48.6498 73.5867 48.6814 73.555 48.7131C73.5234 48.7447 73.4897 48.7764 73.4541 48.808C73.2483 49.0158 72.999 49.1691 72.7061 49.268C72.4152 49.367 72.1283 49.4164 71.8453 49.4164Z" fill="white"/>
<path d="M77.4373 44.0419V43.2524H82.1419V44.0419H80.2452V49.3304H79.331V44.0419H77.4373Z" fill="white"/>
<path d="M84.3806 49.4224C83.9314 49.4224 83.5445 49.3264 83.22 49.1345C82.8975 48.9406 82.6482 48.6686 82.472 48.3184C82.2979 47.9662 82.2108 47.5537 82.2108 47.0808C82.2108 46.6139 82.2979 46.2024 82.472 45.8462C82.6482 45.4901 82.8935 45.2121 83.2082 45.0123C83.5248 44.8125 83.8948 44.7126 84.3183 44.7126C84.5755 44.7126 84.8248 44.7551 85.0662 44.8402C85.3076 44.9252 85.5243 45.0588 85.7163 45.2408C85.9082 45.4228 86.0596 45.6593 86.1704 45.9501C86.2812 46.239 86.3366 46.5901 86.3366 47.0037V47.3182H82.7125V46.6535H85.4669C85.4669 46.42 85.4194 46.2132 85.3245 46.0332C85.2295 45.8512 85.0959 45.7077 84.9238 45.6029C84.7536 45.498 84.5537 45.4456 84.3242 45.4456C84.0749 45.4456 83.8572 45.5069 83.6712 45.6296C83.4872 45.7503 83.3447 45.9086 83.2438 46.1044C83.1448 46.2983 83.0954 46.509 83.0954 46.7366V47.2559C83.0954 47.5606 83.1488 47.8198 83.2556 48.0335C83.3645 48.2471 83.5159 48.4104 83.7098 48.5231C83.9037 48.6339 84.1303 48.6893 84.3895 48.6893C84.5577 48.6893 84.711 48.6656 84.8495 48.6181C84.9881 48.5686 85.1078 48.4954 85.2087 48.3985C85.3096 48.3015 85.3868 48.1818 85.4402 48.0394L86.2802 48.1907C86.2129 48.4381 86.0922 48.6547 85.9181 48.8407C85.7459 49.0247 85.5293 49.1681 85.2681 49.271C85.0088 49.3719 84.713 49.4224 84.3806 49.4224Z" fill="white"/>
<path d="M89.2083 49.4224C88.767 49.4224 88.3871 49.3224 88.0685 49.1226C87.7519 48.9208 87.5085 48.6428 87.3383 48.2887C87.1681 47.9345 87.0831 47.5289 87.0831 47.0719C87.0831 46.6089 87.1701 46.2004 87.3443 45.8462C87.5184 45.4901 87.7638 45.2121 88.0804 45.0123C88.397 44.8125 88.77 44.7126 89.1994 44.7126C89.5457 44.7126 89.8543 44.7769 90.1254 44.9055C90.3965 45.0321 90.6152 45.2102 90.7814 45.4397C90.9496 45.6692 91.0495 45.9372 91.0812 46.2439H90.2175C90.17 46.0302 90.0611 45.8462 89.891 45.6919C89.7228 45.5376 89.4972 45.4604 89.2142 45.4604C88.9669 45.4604 88.7502 45.5257 88.5642 45.6563C88.3802 45.7849 88.2367 45.9689 88.1338 46.2083C88.0309 46.4457 87.9795 46.7267 87.9795 47.0511C87.9795 47.3835 88.0299 47.6704 88.1308 47.9118C88.2318 48.1532 88.3742 48.3401 88.5583 48.4727C88.7443 48.6052 88.9629 48.6715 89.2142 48.6715C89.3824 48.6715 89.5348 48.6409 89.6713 48.5795C89.8098 48.5162 89.9256 48.4262 90.0186 48.3095C90.1136 48.1927 90.1799 48.0522 90.2175 47.888H91.0812C91.0495 48.1828 90.9536 48.446 90.7933 48.6775C90.633 48.9089 90.4183 49.091 90.1492 49.2235C89.8821 49.3561 89.5684 49.4224 89.2083 49.4224Z" fill="white"/>
<path d="M92.8843 46.6238V49.3304H91.9968V43.2524H92.8725V45.5139H92.9289C93.0357 45.2685 93.199 45.0736 93.4186 44.9292C93.6382 44.7848 93.9252 44.7126 94.2794 44.7126C94.592 44.7126 94.8651 44.7769 95.0986 44.9055C95.3341 45.0341 95.5161 45.226 95.6447 45.4812C95.7753 45.7345 95.8406 46.051 95.8406 46.4309V49.3304H94.9531V46.5377C94.9531 46.2034 94.8671 45.9442 94.6949 45.7602C94.5228 45.5742 94.2833 45.4812 93.9766 45.4812C93.7669 45.4812 93.5789 45.5257 93.4127 45.6147C93.2484 45.7038 93.1188 45.8344 93.0238 46.0065C92.9308 46.1766 92.8843 46.3824 92.8843 46.6238Z" fill="white"/>
</svg>
