<svg width="26" height="26" viewBox="0 0 26 26" fill="none" xmlns="http://www.w3.org/2000/svg">
<path d="M7.85645 0.226074L10.1173 2.37389C10.9651 3.1652 11.4173 4.23912 11.4173 5.42607C11.4173 6.55651 11.8695 7.63042 12.6608 8.42173L12.9434 8.70433L15.5434 0.282591" fill="#EB5500"/>
<path d="M0.169922 7.74341L3.27862 7.63037C4.40905 7.57385 5.53948 8.02602 6.33079 8.81733C7.12209 9.60863 8.19601 10.0043 9.32644 10.0043H9.72209L5.53949 2.2608" fill="#EB5500"/>
<path d="M0.169567 18.4826L2.26087 16.2217C3.05217 15.3739 4.12609 14.8652 5.25652 14.8652C6.38696 14.8652 7.40435 14.3565 8.19565 13.5652L8.47826 13.2826L0 10.8522" fill="#EB5500"/>
<path d="M7.85639 25.9435L7.68683 22.8348C7.63031 21.7044 8.02596 20.574 8.81727 19.7261C9.55205 18.9348 10.0042 17.8044 9.9477 16.7305V16.3348L2.26074 20.687" fill="#EB5500"/>
<path d="M18.5953 25.7174L16.2779 23.6826C15.4301 22.9478 14.9214 21.8739 14.8648 20.6869C14.8083 19.5565 14.2996 18.5391 13.5083 17.7478L13.2257 17.4652L10.9648 26" fill="#EB5500"/>
<path d="M25.9435 17.8609L22.8348 18.087C21.7044 18.2 20.574 17.8044 19.7261 17.0131C18.8783 16.2783 17.8044 15.8826 16.674 15.9392H16.2783L20.8001 23.5131" fill="#EB5500"/>
<path d="M25.4353 7.17834L23.457 9.55226C22.7222 10.4001 21.6483 10.9653 20.5179 11.0218C19.3874 11.0783 18.37 11.587 17.6353 12.4349L17.4092 12.7175L26.0005 14.7523" fill="#EB5500"/>
<path d="M17.4653 0L17.7479 3.1087C17.8609 4.23913 17.5218 5.36957 16.7305 6.27392C15.9957 7.12174 15.6566 8.19565 15.7131 9.32609L15.7696 9.72174L23.2305 5.03044" fill="#EB5500"/>
</svg>
