<svg width="26" height="22" viewBox="0 0 26 22" fill="none" xmlns="http://www.w3.org/2000/svg">
<path d="M21.4538 3.34497C21.1984 3.09284 20.943 2.84071 20.6876 2.58857C19.9214 1.78175 19.1041 0.97492 18.0825 0.470653C16.9077 -0.134468 15.6306 0.0168077 14.3536 0.0168077C12.4126 0.0168077 7.55991 0.0168077 4.6994 0.0168077L6.64046 2.58857C10.165 2.58857 15.6817 2.58857 18.2357 2.58857C19.3084 2.58857 20.2279 2.79028 21.0963 3.34497C21.2495 3.3954 21.4027 3.3954 21.4538 3.34497Z" fill="#EB5500"/>
<path d="M23.5992 7.47998C23.3438 7.22784 23.0884 6.97571 22.833 6.72358C22.0668 5.91675 21.2495 5.10992 20.2279 4.60566C19.053 4.00054 17.776 4.15182 16.499 4.15182C14.8134 4.15182 10.778 4.15182 7.91748 4.15182L9.85854 6.72358C13.332 6.72358 18.0825 6.72358 20.4322 6.72358C21.5049 6.72358 22.4244 6.92528 23.2927 7.47998C23.3949 7.53041 23.497 7.53041 23.5992 7.47998Z" fill="#EB5500"/>
<path d="M26 11.5142C25.7446 11.262 25.4892 11.0099 25.2338 10.7578C24.4676 9.95094 23.6503 9.1441 22.6287 8.63984C21.4538 8.03472 20.1768 8.186 18.8998 8.186C17.3163 8.186 13.8428 8.186 11.0334 8.186L12.9744 10.7578C16.3458 10.7578 20.6365 10.7578 22.7819 10.7578C23.8546 10.7578 24.7741 10.9595 25.6424 11.5142C25.7957 11.5646 25.8978 11.615 26 11.5142Z" fill="#EB5500"/>
<path d="M4.49512 18.3218C4.75052 18.5739 5.00592 18.826 5.26133 19.0782C6.02753 19.885 6.84482 20.6918 7.86643 21.1961C9.04128 21.8012 10.3183 21.6499 11.5953 21.6499H21.2495L19.3085 19.0782C15.7839 19.0782 10.2672 19.0782 7.71319 19.0782C6.6405 19.0782 5.72105 18.8764 4.85268 18.3218C4.69944 18.2713 4.59728 18.2713 4.49512 18.3218Z" fill="#EB5500"/>
<path d="M2.34967 14.1867C2.60507 14.4389 2.86048 14.691 3.11588 14.9431C3.88209 15.75 4.69937 16.5568 5.72098 17.0611C6.89583 17.6662 8.17285 17.5149 9.44986 17.5149H18.0314L16.0903 14.9431C12.6169 14.9431 7.86637 14.9431 5.51666 14.9431C4.44397 14.9431 3.52452 14.7414 2.65615 14.1867C2.55399 14.1363 2.45183 14.1363 2.34967 14.1867Z" fill="#EB5500"/>
<path d="M0 10.102C0.255403 10.3542 0.510806 10.6063 0.766208 10.8584C1.53242 11.6653 2.34971 12.4721 3.37132 12.9764C4.54617 13.5815 5.82318 13.4302 7.10019 13.4302H14.9666L13.0255 10.8584C9.65423 10.8584 5.36346 10.8584 3.21808 10.8584C2.14538 10.8584 1.22593 10.6567 0.357562 10.102C0.204321 10.0516 0.102161 10.0516 0 10.102Z" fill="#EB5500"/>
</svg>
