<svg width="26" height="26" viewBox="0 0 26 26" fill="none" xmlns="http://www.w3.org/2000/svg">
<path d="M20.5405 13.0265L24.7567 8.89613C25.7297 7.94297 25.7297 6.46029 24.7567 5.50713L18.7567 11.3849L17.6757 10.3259L21.9459 6.14257C22.9189 5.18941 22.9189 3.70673 21.9459 2.75357L15.8919 8.68432L14.8108 7.62526L19.1351 3.38901C20.1081 2.43585 20.1081 0.953157 19.1351 0L13.027 5.8778L9.13513 2.01222C8.16216 1.05906 6.64865 1.05906 5.67567 2.01222L11.2973 7.51935L10.1622 8.63136L6.27027 4.81874C5.2973 3.86558 3.78377 3.86558 2.8108 4.81874L8.43243 10.3259L7.35135 11.3849L3.45946 7.5723C2.48648 6.61915 0.972973 6.61915 0 7.5723L5.5135 12.9735L1.29729 17.1039C0.324321 18.057 0.324321 19.5397 1.29729 20.4929L7.2973 14.6151L8.37838 15.6741L4.10811 19.8574C3.13514 20.8106 3.13514 22.2933 4.10811 23.2464L10.1622 17.3157L11.2432 18.3747L6.91891 22.611C5.94594 23.5642 5.94594 25.0468 6.91891 26L12.973 20.0692L16.8649 23.9348C17.8378 24.888 19.3514 24.888 20.3243 23.9348L14.7027 18.4277L15.8378 17.3157L19.7297 21.1283C20.7027 22.0815 22.2162 22.0815 23.1892 21.1283L17.5676 15.6212L18.6486 14.5621L22.5405 18.3747C23.5135 19.3279 25.027 19.3279 26 18.3747L20.5405 13.0265ZM13.027 9.21385L14.1081 10.2729L12.973 11.3849L11.8919 10.3259L13.027 9.21385ZM10.1622 13.9796L9.18919 13.0265L10.1622 12.0733L11.1351 13.0794L10.1622 13.9796ZM13.027 16.7332L11.9459 15.6741L13.0811 14.5621L14.1622 15.6212L13.027 16.7332ZM14.9189 12.9735L15.8919 12.0204L16.8649 12.9735L15.8919 13.9267L14.9189 12.9735Z" fill="#EB5500"/>
</svg>
