<svg width="26" height="26" viewBox="0 0 26 26" fill="none" xmlns="http://www.w3.org/2000/svg">
<path d="M15.2453 20.1547C13.1771 19.3631 11.0499 19.2414 9.09987 19.7894C7.74078 20.1547 6.44078 20.8854 5.25896 21.7987L4.43167 22.5294L4.19531 22.773L4.72713 23.2601C4.78622 23.2601 4.78623 23.321 4.84532 23.3819C4.9635 23.5036 5.08169 23.5645 5.25896 23.6863L5.61349 23.9299L5.96804 23.6254C6.02713 23.5645 6.14531 23.4428 6.26349 23.3819C7.32713 22.4685 8.50895 21.8596 9.74985 21.5552C11.3453 21.1289 13.0589 21.1898 14.7726 21.8596C16.1908 22.4076 19.0862 23.0774 22.5726 21.5552L22.6908 21.4943L22.868 21.3116C22.868 21.2507 22.9271 21.2507 22.9862 21.1898C23.2817 20.8245 23.5771 20.4591 23.8135 20.0329L24.9953 18.1453L23.1044 19.2413C20.3271 20.8245 17.7862 21.1289 15.2453 20.1547Z" fill="#EB5500"/>
<path d="M7.15045 13.5785C8.7459 13.1522 10.4595 13.2131 12.1732 13.8829C14.0641 14.6136 18.9095 15.6487 24.3459 10.5949L25.2323 9.68151L25.2914 9.62061L25.5277 9.37706L25.4095 9.07261C25.3504 8.82905 25.2323 8.5246 25.1141 8.22015L24.8186 7.36768L24.2277 7.97658C24.1686 8.09836 24.0504 8.15925 23.9323 8.28103C21.3323 11.0211 17.3141 13.822 12.705 12.1171C10.6368 11.3255 8.50954 11.2038 6.55954 11.7518C4.66863 12.2998 3.01408 13.3349 1.47772 14.7963V14.7354L0.591353 15.7096C0.591353 15.7705 0.532273 15.7705 0.473182 15.8314L0.295898 16.0141L0.354993 16.2576C0.414084 16.5621 0.532262 16.8665 0.591353 17.171L0.945902 18.1452L1.53681 17.3536C1.5959 17.2319 1.71408 17.171 1.77317 17.0492C3.01408 15.8923 4.72772 14.2482 7.15045 13.5785Z" fill="#EB5500"/>
<path d="M1.4182 12.4826C2.77729 11.0212 4.31364 10.1079 5.96819 9.62074C7.56364 9.19451 9.27728 9.2554 10.9909 9.92519C16.3091 11.9346 20.9182 8.6465 22.9273 6.88069L23.6955 6.08913L23.9909 5.84555L23.7546 5.48023C23.5773 5.29756 23.4591 5.05399 23.2818 4.81043L22.9273 4.3233L22.5136 4.74954C22.4545 4.81043 22.3364 4.93221 22.2773 4.9931C19.7955 7.42869 15.9545 9.92519 11.5818 8.22027C9.51364 7.42871 7.38637 7.30692 5.43637 7.85493C4.19546 8.22027 3.01364 8.82917 1.83182 9.62074L0.590909 10.6559C0.472727 10.7777 0.413636 10.8385 0.295455 10.9603L0.177284 11.0821V11.2648C0.118193 11.691 0.118185 12.1172 0.0590945 12.4826L0 14.0048L1.00455 12.9088C1.12273 12.787 1.24092 12.6044 1.4182 12.4826Z" fill="#EB5500"/>
<path d="M16.959 24.295L16.8408 24.6603L16.959 24.295C16.7817 24.2341 16.6635 24.1732 16.4862 24.1123C14.4181 23.3207 12.2908 23.199 10.3408 23.747C9.92713 23.8688 9.51351 23.9905 9.09988 24.1732L7.68168 24.843L7.32715 25.0257L8.50897 25.4519C8.86351 25.5737 9.21805 25.6955 9.5726 25.8172L9.74986 25.8781L9.92714 25.8172C10.1044 25.7564 10.2817 25.6346 10.459 25.6346C10.5771 25.6346 10.6953 25.5737 10.8135 25.5128C12.2317 25.1475 13.768 25.1474 15.4226 25.6955C15.5999 25.7563 15.7181 25.8172 15.8953 25.8781L16.1908 25.9999L16.368 25.939C16.7817 25.8172 17.2544 25.6955 17.609 25.5128L19.2635 24.9039L17.5499 24.4777C17.3726 24.4168 17.1362 24.3559 16.959 24.295Z" fill="#EB5500"/>
<path d="M26.0002 11.691L25.1138 12.6043C24.9956 12.7261 24.8775 12.8479 24.7593 12.9697C22.3366 15.3444 18.4366 17.9018 14.0638 16.1968C11.9956 15.4053 9.86838 15.2835 7.91838 15.8315C6.08656 16.3795 4.432 17.3538 2.95473 18.8151L2.18656 19.6676L1.9502 19.972L2.18656 20.3374C2.36383 20.5809 2.48202 20.7636 2.6002 21.0072L2.95473 21.5552L3.36837 21.0072C3.42746 20.9463 3.54564 20.8245 3.60473 20.7636C5.02292 19.1804 6.55928 18.2062 8.33201 17.7191C9.92746 17.2929 11.6411 17.3537 13.3547 18.0235C14.832 18.5715 16.3684 18.7542 17.9047 18.5716C20.6229 18.2671 23.3411 16.684 25.3502 14.9182C25.4684 14.7964 25.5865 14.7355 25.7047 14.6137L25.882 14.431V14.2484C25.882 13.883 25.9411 13.4568 25.9411 13.0915L26.0002 11.691Z" fill="#EB5500"/>
<path d="M3.54578 6.08888L3.36852 5.72353L3.54578 6.08888C3.90033 5.90621 4.31398 5.78442 4.66853 5.66264C6.26398 5.23641 7.97762 5.2973 9.69125 5.96709C10.814 6.39332 11.9367 6.57599 13.1776 6.57599C15.6594 6.57599 18.1412 5.66264 20.4458 3.89683L21.3322 3.16615L21.6276 2.92259L21.0958 2.49635C20.9185 2.31368 20.6822 2.13102 20.4458 2.00924L20.0912 1.76569L19.7958 2.00924C19.6776 2.07013 19.6185 2.19191 19.5003 2.2528C16.3685 4.6884 13.2367 5.35819 10.2822 4.20128C8.15489 3.40971 6.02761 3.22704 3.90033 3.89683C3.72306 3.95772 3.54579 4.01861 3.30942 4.0795L3.19125 4.14039L3.01397 4.32305C3.01397 4.38394 2.95489 4.38395 2.8958 4.44484C2.65944 4.81018 2.36397 5.11464 2.12761 5.47998L1.00488 7.24578L2.8367 6.27154C3.13216 6.27154 3.36851 6.14977 3.54578 6.08888Z" fill="#EB5500"/>
<path d="M8.39092 1.94847L8.56818 2.00936C9.33636 2.31381 10.5182 2.61826 11.9955 2.61826C13.5318 2.61826 15.0091 2.25292 16.4864 1.64402L18.3182 0.730668L17.0773 0.30445C16.7227 0.18267 16.3682 0.0608899 15.9545 0H15.7773L15.6 0.0608751C15.4227 0.121765 15.2455 0.24356 15.0682 0.30445C13.2955 0.974239 11.5227 1.09602 9.80909 0.608899C9.63182 0.54801 9.45455 0.487108 9.27728 0.426218L9.10001 0.365325L8.92273 0.426218C8.56819 0.547998 8.21365 0.669786 7.8591 0.852456L6.5 1.46136L7.9182 1.88757C8.03638 1.82668 8.21364 1.88758 8.39092 1.94847Z" fill="#EB5500"/>
</svg>
